<?xml version="1.0" encoding="UTF-8"?>
<svg width="18px" height="18px" viewBox="0 0 18 18" version="1.1" xmlns="http://www.w3.org/2000/svg" xmlns:xlink="http://www.w3.org/1999/xlink">
    <title>Combined Shape Copy</title>
    <desc>Created with Sketch.</desc>
    <defs/>
    <g id="home2" stroke="none" stroke-width="1" fill="none" fill-rule="evenodd">
        <g id="menu" transform="translate(-215.000000, -71.000000)" fill="#ffffff">
            <path d="M222.363961,79.7781746 L215.292893,72.7071068 C214.902369,72.3165825 214.902369,71.6834175 215.292893,71.2928932 C215.683418,70.9023689 216.316582,70.9023689 216.707107,71.2928932 L223.778175,78.363961 L230.849242,71.2928932 C231.239767,70.9023689 231.872932,70.9023689 232.263456,71.2928932 C232.65398,71.6834175 232.65398,72.3165825 232.263456,72.7071068 L225.192388,79.7781746 L232.263456,86.8492424 C232.65398,87.2397667 232.65398,87.8729317 232.263456,88.263456 C231.872932,88.6539803 231.239767,88.6539803 230.849242,88.263456 L223.778175,81.1923882 L216.707107,88.263456 C216.316582,88.6539803 215.683418,88.6539803 215.292893,88.263456 C214.902369,87.8729317 214.902369,87.2397667 215.292893,86.8492424 L222.363961,79.7781746 Z" id="Combined-Shape-Copy"/>
        </g>
    </g>
</svg>