<svg xmlns="http://www.w3.org/2000/svg" xmlns:xlink="http://www.w3.org/1999/xlink" viewBox="0 0 303 247"><defs><style>.a{fill:none;}.b{clip-path:url(#a);}.c{fill:#fff;}</style><clipPath id="a"><rect class="a" width="303" height="247"/></clipPath></defs><g class="b"><g transform="translate(-14 -184)"><circle class="c" cx="4" cy="4" r="4" transform="translate(14 184)"/></g><g transform="translate(7 -184)"><circle class="c" cx="4" cy="4" r="4" transform="translate(14 184)"/></g><g transform="translate(28 -184)"><circle class="c" cx="4" cy="4" r="4" transform="translate(14 184)"/></g><g transform="translate(49 -184)"><circle class="c" cx="4" cy="4" r="4" transform="translate(14 184)"/></g><g transform="translate(70 -184)"><circle class="c" cx="4" cy="4" r="4" transform="translate(14 184)"/></g><g transform="translate(91 -184)"><circle class="c" cx="4" cy="4" r="4" transform="translate(14 184)"/></g><g transform="translate(112 -184)"><circle class="c" cx="4" cy="4" r="4" transform="translate(14 184)"/></g><g transform="translate(133 -184)"><circle class="c" cx="4" cy="4" r="4" transform="translate(14 184)"/></g><g transform="translate(154 -184)"><circle class="c" cx="4" cy="4" r="4" transform="translate(14 184)"/></g><g transform="translate(175 -184)"><circle class="c" cx="4" cy="4" r="4" transform="translate(14 184)"/></g><g transform="translate(196 -184)"><circle class="c" cx="4" cy="4" r="4" transform="translate(14 184)"/></g><g transform="translate(217 -184)"><circle class="c" cx="4" cy="4" r="4" transform="translate(14 184)"/></g><g transform="translate(238 -184)"><circle class="c" cx="4" cy="4" r="4" transform="translate(14 184)"/></g><g transform="translate(259 -184)"><circle class="c" cx="4" cy="4" r="4" transform="translate(14 184)"/></g><g transform="translate(280 -184)"><circle class="c" cx="4" cy="4" r="4" transform="translate(14 184)"/></g><g transform="translate(-14 -160)"><circle class="c" cx="4" cy="4" r="4" transform="translate(14 184)"/></g><g transform="translate(7 -160)"><circle class="c" cx="4" cy="4" r="4" transform="translate(14 184)"/></g><g transform="translate(28 -160)"><circle class="c" cx="4" cy="4" r="4" transform="translate(14 184)"/></g><g transform="translate(49 -160)"><circle class="c" cx="4" cy="4" r="4" transform="translate(14 184)"/></g><g transform="translate(70 -160)"><circle class="c" cx="4" cy="4" r="4" transform="translate(14 184)"/></g><g transform="translate(91 -160)"><circle class="c" cx="4" cy="4" r="4" transform="translate(14 184)"/></g><g transform="translate(112 -160)"><circle class="c" cx="4" cy="4" r="4" transform="translate(14 184)"/></g><g transform="translate(133 -160)"><circle class="c" cx="4" cy="4" r="4" transform="translate(14 184)"/></g><g transform="translate(154 -160)"><circle class="c" cx="4" cy="4" r="4" transform="translate(14 184)"/></g><g transform="translate(175 -160)"><circle class="c" cx="4" cy="4" r="4" transform="translate(14 184)"/></g><g transform="translate(196 -160)"><circle class="c" cx="4" cy="4" r="4" transform="translate(14 184)"/></g><g transform="translate(217 -160)"><circle class="c" cx="4" cy="4" r="4" transform="translate(14 184)"/></g><g transform="translate(238 -160)"><circle class="c" cx="4" cy="4" r="4" transform="translate(14 184)"/></g><g transform="translate(259 -160)"><circle class="c" cx="4" cy="4" r="4" transform="translate(14 184)"/></g><g transform="translate(280 -160)"><circle class="c" cx="4" cy="4" r="4" transform="translate(14 184)"/></g><g transform="translate(-14 -136)"><circle class="c" cx="4" cy="4" r="4" transform="translate(14 184)"/></g><g transform="translate(7 -136)"><circle class="c" cx="4" cy="4" r="4" transform="translate(14 184)"/></g><g transform="translate(28 -136)"><circle class="c" cx="4" cy="4" r="4" transform="translate(14 184)"/></g><g transform="translate(49 -136)"><circle class="c" cx="4" cy="4" r="4" transform="translate(14 184)"/></g><g transform="translate(70 -136)"><circle class="c" cx="4" cy="4" r="4" transform="translate(14 184)"/></g><g transform="translate(91 -136)"><circle class="c" cx="4" cy="4" r="4" transform="translate(14 184)"/></g><g transform="translate(112 -136)"><circle class="c" cx="4" cy="4" r="4" transform="translate(14 184)"/></g><g transform="translate(133 -136)"><circle class="c" cx="4" cy="4" r="4" transform="translate(14 184)"/></g><g transform="translate(154 -136)"><circle class="c" cx="4" cy="4" r="4" transform="translate(14 184)"/></g><g transform="translate(175 -136)"><circle class="c" cx="4" cy="4" r="4" transform="translate(14 184)"/></g><g transform="translate(196 -136)"><circle class="c" cx="4" cy="4" r="4" transform="translate(14 184)"/></g><g transform="translate(217 -136)"><circle class="c" cx="4" cy="4" r="4" transform="translate(14 184)"/></g><g transform="translate(238 -136)"><circle class="c" cx="4" cy="4" r="4" transform="translate(14 184)"/></g><g transform="translate(259 -136)"><circle class="c" cx="4" cy="4" r="4" transform="translate(14 184)"/></g><g transform="translate(280 -136)"><circle class="c" cx="4" cy="4" r="4" transform="translate(14 184)"/></g><g transform="translate(-14 -112)"><circle class="c" cx="4" cy="4" r="4" transform="translate(14 184)"/></g><g transform="translate(7 -112)"><circle class="c" cx="4" cy="4" r="4" transform="translate(14 184)"/></g><g transform="translate(28 -112)"><circle class="c" cx="4" cy="4" r="4" transform="translate(14 184)"/></g><g transform="translate(49 -112)"><circle class="c" cx="4" cy="4" r="4" transform="translate(14 184)"/></g><g transform="translate(70 -112)"><circle class="c" cx="4" cy="4" r="4" transform="translate(14 184)"/></g><g transform="translate(91 -112)"><circle class="c" cx="4" cy="4" r="4" transform="translate(14 184)"/></g><g transform="translate(112 -112)"><circle class="c" cx="4" cy="4" r="4" transform="translate(14 184)"/></g><g transform="translate(133 -112)"><circle class="c" cx="4" cy="4" r="4" transform="translate(14 184)"/></g><g transform="translate(154 -112)"><circle class="c" cx="4" cy="4" r="4" transform="translate(14 184)"/></g><g transform="translate(175 -112)"><circle class="c" cx="4" cy="4" r="4" transform="translate(14 184)"/></g><g transform="translate(196 -112)"><circle class="c" cx="4" cy="4" r="4" transform="translate(14 184)"/></g><g transform="translate(217 -112)"><circle class="c" cx="4" cy="4" r="4" transform="translate(14 184)"/></g><g transform="translate(238 -112)"><circle class="c" cx="4" cy="4" r="4" transform="translate(14 184)"/></g><g transform="translate(259 -112)"><circle class="c" cx="4" cy="4" r="4" transform="translate(14 184)"/></g><g transform="translate(280 -112)"><circle class="c" cx="4" cy="4" r="4" transform="translate(14 184)"/></g><g transform="translate(-14 -88)"><circle class="c" cx="4" cy="4" r="4" transform="translate(14 184)"/></g><g transform="translate(7 -88)"><circle class="c" cx="4" cy="4" r="4" transform="translate(14 184)"/></g><g transform="translate(28 -88)"><circle class="c" cx="4" cy="4" r="4" transform="translate(14 184)"/></g><g transform="translate(49 -88)"><circle class="c" cx="4" cy="4" r="4" transform="translate(14 184)"/></g><g transform="translate(70 -88)"><circle class="c" cx="4" cy="4" r="4" transform="translate(14 184)"/></g><g transform="translate(91 -88)"><circle class="c" cx="4" cy="4" r="4" transform="translate(14 184)"/></g><g transform="translate(112 -88)"><circle class="c" cx="4" cy="4" r="4" transform="translate(14 184)"/></g><g transform="translate(133 -88)"><circle class="c" cx="4" cy="4" r="4" transform="translate(14 184)"/></g><g transform="translate(154 -88)"><circle class="c" cx="4" cy="4" r="4" transform="translate(14 184)"/></g><g transform="translate(175 -88)"><circle class="c" cx="4" cy="4" r="4" transform="translate(14 184)"/></g><g transform="translate(196 -88)"><circle class="c" cx="4" cy="4" r="4" transform="translate(14 184)"/></g><g transform="translate(217 -88)"><circle class="c" cx="4" cy="4" r="4" transform="translate(14 184)"/></g><g transform="translate(238 -88)"><circle class="c" cx="4" cy="4" r="4" transform="translate(14 184)"/></g><g transform="translate(259 -88)"><circle class="c" cx="4" cy="4" r="4" transform="translate(14 184)"/></g><g transform="translate(280 -88)"><circle class="c" cx="4" cy="4" r="4" transform="translate(14 184)"/></g><g transform="translate(-14 -64)"><circle class="c" cx="4" cy="4" r="4" transform="translate(14 184)"/></g><g transform="translate(7 -64)"><circle class="c" cx="4" cy="4" r="4" transform="translate(14 184)"/></g><g transform="translate(28 -64)"><circle class="c" cx="4" cy="4" r="4" transform="translate(14 184)"/></g><g transform="translate(49 -64)"><circle class="c" cx="4" cy="4" r="4" transform="translate(14 184)"/></g><g transform="translate(70 -64)"><circle class="c" cx="4" cy="4" r="4" transform="translate(14 184)"/></g><g transform="translate(91 -64)"><circle class="c" cx="4" cy="4" r="4" transform="translate(14 184)"/></g><g transform="translate(112 -64)"><circle class="c" cx="4" cy="4" r="4" transform="translate(14 184)"/></g><g transform="translate(133 -64)"><circle class="c" cx="4" cy="4" r="4" transform="translate(14 184)"/></g><g transform="translate(154 -64)"><circle class="c" cx="4" cy="4" r="4" transform="translate(14 184)"/></g><g transform="translate(175 -64)"><circle class="c" cx="4" cy="4" r="4" transform="translate(14 184)"/></g><g transform="translate(196 -64)"><circle class="c" cx="4" cy="4" r="4" transform="translate(14 184)"/></g><g transform="translate(217 -64)"><circle class="c" cx="4" cy="4" r="4" transform="translate(14 184)"/></g><g transform="translate(238 -64)"><circle class="c" cx="4" cy="4" r="4" transform="translate(14 184)"/></g><g transform="translate(259 -64)"><circle class="c" cx="4" cy="4" r="4" transform="translate(14 184)"/></g><g transform="translate(280 -64)"><circle class="c" cx="4" cy="4" r="4" transform="translate(14 184)"/></g><g transform="translate(-14 -40)"><circle class="c" cx="4" cy="4" r="4" transform="translate(14 184)"/></g><g transform="translate(7 -40)"><circle class="c" cx="4" cy="4" r="4" transform="translate(14 184)"/></g><g transform="translate(28 -40)"><circle class="c" cx="4" cy="4" r="4" transform="translate(14 184)"/></g><g transform="translate(49 -40)"><circle class="c" cx="4" cy="4" r="4" transform="translate(14 184)"/></g><g transform="translate(70 -40)"><circle class="c" cx="4" cy="4" r="4" transform="translate(14 184)"/></g><g transform="translate(91 -40)"><circle class="c" cx="4" cy="4" r="4" transform="translate(14 184)"/></g><g transform="translate(112 -40)"><circle class="c" cx="4" cy="4" r="4" transform="translate(14 184)"/></g><g transform="translate(133 -40)"><circle class="c" cx="4" cy="4" r="4" transform="translate(14 184)"/></g><g transform="translate(154 -40)"><circle class="c" cx="4" cy="4" r="4" transform="translate(14 184)"/></g><g transform="translate(175 -40)"><circle class="c" cx="4" cy="4" r="4" transform="translate(14 184)"/></g><g transform="translate(196 -40)"><circle class="c" cx="4" cy="4" r="4" transform="translate(14 184)"/></g><g transform="translate(217 -40)"><circle class="c" cx="4" cy="4" r="4" transform="translate(14 184)"/></g><g transform="translate(238 -40)"><circle class="c" cx="4" cy="4" r="4" transform="translate(14 184)"/></g><g transform="translate(259 -40)"><circle class="c" cx="4" cy="4" r="4" transform="translate(14 184)"/></g><g transform="translate(280 -40)"><circle class="c" cx="4" cy="4" r="4" transform="translate(14 184)"/></g><g transform="translate(-14 -16)"><circle class="c" cx="4" cy="4" r="4" transform="translate(14 184)"/></g><g transform="translate(7 -16)"><circle class="c" cx="4" cy="4" r="4" transform="translate(14 184)"/></g><g transform="translate(28 -16)"><circle class="c" cx="4" cy="4" r="4" transform="translate(14 184)"/></g><g transform="translate(49 -16)"><circle class="c" cx="4" cy="4" r="4" transform="translate(14 184)"/></g><g transform="translate(70 -16)"><circle class="c" cx="4" cy="4" r="4" transform="translate(14 184)"/></g><g transform="translate(91 -16)"><circle class="c" cx="4" cy="4" r="4" transform="translate(14 184)"/></g><g transform="translate(112 -16)"><circle class="c" cx="4" cy="4" r="4" transform="translate(14 184)"/></g><g transform="translate(133 -16)"><circle class="c" cx="4" cy="4" r="4" transform="translate(14 184)"/></g><g transform="translate(154 -16)"><circle class="c" cx="4" cy="4" r="4" transform="translate(14 184)"/></g><g transform="translate(175 -16)"><circle class="c" cx="4" cy="4" r="4" transform="translate(14 184)"/></g><g transform="translate(196 -16)"><circle class="c" cx="4" cy="4" r="4" transform="translate(14 184)"/></g><g transform="translate(217 -16)"><circle class="c" cx="4" cy="4" r="4" transform="translate(14 184)"/></g><g transform="translate(238 -16)"><circle class="c" cx="4" cy="4" r="4" transform="translate(14 184)"/></g><g transform="translate(259 -16)"><circle class="c" cx="4" cy="4" r="4" transform="translate(14 184)"/></g><g transform="translate(280 -16)"><circle class="c" cx="4" cy="4" r="4" transform="translate(14 184)"/></g><g transform="translate(-14 8)"><circle class="c" cx="4" cy="4" r="4" transform="translate(14 184)"/></g><g transform="translate(7 8)"><circle class="c" cx="4" cy="4" r="4" transform="translate(14 184)"/></g><g transform="translate(28 8)"><circle class="c" cx="4" cy="4" r="4" transform="translate(14 184)"/></g><g transform="translate(49 8)"><circle class="c" cx="4" cy="4" r="4" transform="translate(14 184)"/></g><g transform="translate(70 8)"><circle class="c" cx="4" cy="4" r="4" transform="translate(14 184)"/></g><g transform="translate(91 8)"><circle class="c" cx="4" cy="4" r="4" transform="translate(14 184)"/></g><g transform="translate(112 8)"><circle class="c" cx="4" cy="4" r="4" transform="translate(14 184)"/></g><g transform="translate(133 8)"><circle class="c" cx="4" cy="4" r="4" transform="translate(14 184)"/></g><g transform="translate(154 8)"><circle class="c" cx="4" cy="4" r="4" transform="translate(14 184)"/></g><g transform="translate(175 8)"><circle class="c" cx="4" cy="4" r="4" transform="translate(14 184)"/></g><g transform="translate(196 8)"><circle class="c" cx="4" cy="4" r="4" transform="translate(14 184)"/></g><g transform="translate(217 8)"><circle class="c" cx="4" cy="4" r="4" transform="translate(14 184)"/></g><g transform="translate(238 8)"><circle class="c" cx="4" cy="4" r="4" transform="translate(14 184)"/></g><g transform="translate(259 8)"><circle class="c" cx="4" cy="4" r="4" transform="translate(14 184)"/></g><g transform="translate(280 8)"><circle class="c" cx="4" cy="4" r="4" transform="translate(14 184)"/></g><g transform="translate(-14 32)"><circle class="c" cx="4" cy="4" r="4" transform="translate(14 184)"/></g><g transform="translate(7 32)"><circle class="c" cx="4" cy="4" r="4" transform="translate(14 184)"/></g><g transform="translate(28 32)"><circle class="c" cx="4" cy="4" r="4" transform="translate(14 184)"/></g><g transform="translate(49 32)"><circle class="c" cx="4" cy="4" r="4" transform="translate(14 184)"/></g><g transform="translate(70 32)"><circle class="c" cx="4" cy="4" r="4" transform="translate(14 184)"/></g><g transform="translate(91 32)"><circle class="c" cx="4" cy="4" r="4" transform="translate(14 184)"/></g><g transform="translate(112 32)"><circle class="c" cx="4" cy="4" r="4" transform="translate(14 184)"/></g><g transform="translate(133 32)"><circle class="c" cx="4" cy="4" r="4" transform="translate(14 184)"/></g><g transform="translate(154 32)"><circle class="c" cx="4" cy="4" r="4" transform="translate(14 184)"/></g><g transform="translate(175 32)"><circle class="c" cx="4" cy="4" r="4" transform="translate(14 184)"/></g><g transform="translate(196 32)"><circle class="c" cx="4" cy="4" r="4" transform="translate(14 184)"/></g><g transform="translate(217 32)"><circle class="c" cx="4" cy="4" r="4" transform="translate(14 184)"/></g><g transform="translate(238 32)"><circle class="c" cx="4" cy="4" r="4" transform="translate(14 184)"/></g><g transform="translate(259 32)"><circle class="c" cx="4" cy="4" r="4" transform="translate(14 184)"/></g><g transform="translate(280 32)"><circle class="c" cx="4" cy="4" r="4" transform="translate(14 184)"/></g><g transform="translate(-14 56)"><circle class="c" cx="4" cy="4" r="4" transform="translate(14 184)"/></g><g transform="translate(7 56)"><circle class="c" cx="4" cy="4" r="4" transform="translate(14 184)"/></g><g transform="translate(28 56)"><circle class="c" cx="4" cy="4" r="4" transform="translate(14 184)"/></g><g transform="translate(49 56)"><circle class="c" cx="4" cy="4" r="4" transform="translate(14 184)"/></g><g transform="translate(70 56)"><circle class="c" cx="4" cy="4" r="4" transform="translate(14 184)"/></g><g transform="translate(91 56)"><circle class="c" cx="4" cy="4" r="4" transform="translate(14 184)"/></g><g transform="translate(112 56)"><circle class="c" cx="4" cy="4" r="4" transform="translate(14 184)"/></g><g transform="translate(133 56)"><circle class="c" cx="4" cy="4" r="4" transform="translate(14 184)"/></g><g transform="translate(154 56)"><circle class="c" cx="4" cy="4" r="4" transform="translate(14 184)"/></g><g transform="translate(175 56)"><circle class="c" cx="4" cy="4" r="4" transform="translate(14 184)"/></g><g transform="translate(196 56)"><circle class="c" cx="4" cy="4" r="4" transform="translate(14 184)"/></g><g transform="translate(217 56)"><circle class="c" cx="4" cy="4" r="4" transform="translate(14 184)"/></g><g transform="translate(238 56)"><circle class="c" cx="4" cy="4" r="4" transform="translate(14 184)"/></g><g transform="translate(259 56)"><circle class="c" cx="4" cy="4" r="4" transform="translate(14 184)"/></g><g transform="translate(280 56)"><circle class="c" cx="4" cy="4" r="4" transform="translate(14 184)"/></g></g></svg>